<svg width="40" height="40" viewBox="0 0 40 40" fill="none" xmlns="http://www.w3.org/2000/svg">
<g style="mix-blend-mode:luminosity" clip-path="url(#clip0)">
<path fill-rule="evenodd" clip-rule="evenodd" d="M31.8558 10.9757C33.4196 10.9757 34.6875 9.70794 34.6875 8.14413C34.6875 6.58033 33.4196 5.31252 31.8558 5.31252C30.292 5.31252 29.0242 6.58033 29.0242 8.14413C29.0242 9.70794 30.292 10.9757 31.8558 10.9757ZM11.7959 10.1114L20.4826 1.42471C21.1452 0.762059 22.0655 0.3572 23.0778 0.3572H35.9617C36.4456 0.355511 36.925 0.449571 37.3724 0.633963C37.8198 0.818356 38.2262 1.08944 38.5684 1.43159C38.9106 1.77375 39.1817 2.18022 39.3661 2.62759C39.5505 3.07496 39.6445 3.5544 39.6429 4.03828V16.9222C39.6429 17.9345 39.2379 18.8548 38.5569 19.5174L29.8835 28.1991L11.7959 10.1114Z" fill="#7D7D7D"/>
<path fill-rule="evenodd" clip-rule="evenodd" d="M29.8834 28.1987L19.1786 38.9135C18.4975 39.5761 17.5773 39.9995 16.5651 39.9995C15.5528 39.9995 14.6324 39.5761 13.9698 38.9135L1.08588 26.0298C0.404859 25.3671 0 24.4469 0 23.4346C0 22.4039 0.423301 21.4836 1.08588 20.821L11.7959 10.1111L29.8834 28.1987Z" fill="#7C7C7C"/>
<path fill-rule="evenodd" clip-rule="evenodd" d="M7.33814 32.2823L1.08588 26.0301C0.404859 25.3677 0 24.4473 0 23.435C0 22.4043 0.423301 21.4841 1.08588 20.8215L11.7959 10.1116L20.6524 18.9682L7.33814 32.2823Z" fill="#BBBBBB"/>
<path fill-rule="evenodd" clip-rule="evenodd" d="M38.3718 1.24882C37.7023 0.670772 36.8464 0.354124 35.9618 0.3572H23.0778C22.0655 0.3572 21.1453 0.762059 20.4826 1.42471L11.7959 10.1114L20.6525 18.9681L29.6729 9.94768C29.2528 9.44065 29.0234 8.8026 29.0244 8.14413C29.0244 6.58033 30.2921 5.31252 31.8559 5.31252C32.5144 5.3115 33.1525 5.54094 33.6596 5.96107L38.3718 1.24882Z" fill="#747474"/>
<path d="M20.6472 25.7236C23.8237 25.7236 26.3988 23.1485 26.3988 19.9719C26.3988 16.7953 23.8237 14.2202 20.6472 14.2202C17.4706 14.2202 14.8955 16.7953 14.8955 19.9719C14.8955 23.1485 17.4706 25.7236 20.6472 25.7236Z" fill="#7D7D7D"/>
<path fill-rule="evenodd" clip-rule="evenodd" d="M28.4833 18.2798H20.8336V21.5619H25.2369C24.8264 23.647 23.1099 24.844 20.8336 24.844C18.1468 24.844 15.9825 22.6044 15.9825 19.8243C15.9825 17.0441 18.1468 14.8045 20.8336 14.8045C21.9904 14.8045 23.0352 15.2293 23.8562 15.9244L26.2444 13.4531C24.7891 12.1402 22.9233 11.3293 20.8336 11.3293C16.281 11.3293 12.624 15.1135 12.624 19.8243C12.624 24.535 16.281 28.3192 20.8336 28.3192C24.9383 28.3192 28.6699 25.2301 28.6699 19.8243C28.6699 19.3223 28.5953 18.7817 28.4833 18.2798Z" fill="white"/>
</g>
<defs>
<clipPath id="clip0">
<rect width="40" height="40" fill="white"/>
</clipPath>
</defs>
</svg>
