<svg xmlns="http://www.w3.org/2000/svg" fill="none" viewBox="0 0 2706 963">
  <path fill="#22086C" fill-rule="evenodd" d="M1229.7 247.4c-21.4 0-38.3-7.4-50.7-22.1l139.1-56.4-.4-.7c-.2-22.4-9-40.6-26.2-54.5-17.2-14-38.8-21-64.9-21-16.5 0-32.1 3.5-47 10.5-14.8 7.1-27.2 18-37.3 32.9-10 14.8-15.1 32.1-15.1 51.7 0 28.4 9.7 51.2 29.1 68.6 19.4 17.3 42.5 26 69.5 26 30.9 0 57.6-11.3 80.3-33.9l-23.7-25.3c-13.7 16.1-31.3 24.2-52.7 24.2zm-63.6-58.8c0-18.9 6.5-33.7 19.5-44.3 13-10.6 27.5-15.9 43.2-15.9 20.8 0 35.2 7.6 43.4 22.8l-105.7 44c-.3-1.4-.4-3.6-.4-6.6zM1075 104.3c-10.4 7.5-18.6 17.1-24.6 28.8V95.5H1013v186.9h37.5v-80.1c0-21.3 4.7-38.3 14.1-50.9 9.4-12.6 23.3-19 41.8-19h2l-.3-39.7c-11.7.2-22.7 4.1-33.1 11.6zM1464.6 185.8c-6.4-4.2-12.4-7.4-18-9.7-5.6-2.3-11.4-4.4-17.3-6.2-6-1.8-12.8-3.7-20.5-5.5-7.7-1.8-13.8-3.8-18-5.9-6.2-2.8-9.3-7.1-9.3-13.2 0-6.7 3-11.7 8.9-15.1 5.9-3.3 13.7-5 23.2-5 18.1 0 34.9 5 50.4 14.9l15-28.7c-19.5-12.5-40.2-18.7-62.2-18.7-21.9 0-39.7 5.1-53.4 15.4-13.7 10.3-20.5 23.9-20.5 41 0 24.2 19.8 41.5 59.3 51.9.9.2 2.4.7 4.3 1.4 25.2 7.4 37.9 15.7 37.9 24.9 0 6.2-2.6 11.4-7.9 15.4-5.2 4-12.4 6.1-21.4 6.1-20.7 0-42.2-8.1-64.3-24.2l-19.3 30.1c11.4 8.8 24.6 15.6 39.5 20.4 14.9 4.8 29.2 7.3 43 7.3 20.5 0 37.3-5.2 50.4-15.7 13.1-10.5 19.6-24.5 19.6-42.1-.1-17.6-6.6-30.5-19.4-38.8zM958.8 65.9c-17-13.8-44.1-20.7-81.2-20.7h-84v237.1h41.3v-69.5h43.4c35.9 0 62.6-6.7 80-20 17.3-13.3 26-34.4 26-63.1 0-28.7-8.4-50-25.5-63.8zm-29.2 97.9c-8.3 8.5-23.8 12.7-46.7 12.7H835v-95h42c22.4 0 38.8 3.4 49.3 10.2 10.5 6.8 15.8 18.4 15.8 34.8s-4.2 28.8-12.5 37.3zM1583.4 249.8c-9.1 0-16.1-2.5-21.1-7.5s-7.6-11.8-7.6-20.3v-90.6h52.9v-30.2h-52.9v-56h-42.3V221c0 18.8 6.4 33.7 19.1 44.8 12.7 11.1 28.1 16.6 46.1 16.6s34.4-5.9 49.3-17.8l-17.4-26.5c-8.3 7.8-17 11.7-26.1 11.7zM1778.3 95.4v31.8c-15.9-23.1-36.1-34.6-60.6-34.6s-45.8 8.6-63.8 25.6c-18 17.1-27 39.9-27 68.6 0 28.6 8.8 51.7 26.3 69.2s38.1 26.3 61.7 26.3c11.7 0 23.3-2.8 34.9-8.5 11.6-5.7 21.1-13.8 28.6-24.4v30.1h39.2V95.4h-39.3zm-15.5 135.9c-10.8 11.2-23.8 16.8-39.3 16.8-15.4 0-28.9-5.6-40.3-16.6-11.5-11.1-17.2-25.5-17.2-43.1s5.6-32.4 16.8-44.1c11.2-11.8 24.7-17.7 40.3-17.7 15.7 0 28.8 5.9 39.6 17.7 10.8 11.7 16.1 26.4 16.1 43.9.2 17.6-5.2 31.9-16 43.1zM2441 120.2c-19.1-18.4-42.9-27.5-71.5-27.5s-52.4 9.2-71.5 27.5-28.6 40.8-28.6 67.3c0 26.6 9.6 49 28.6 67.3 19.1 18.4 42.9 27.5 71.5 27.5s52.5-9.2 71.5-27.5c19.1-18.3 28.6-40.8 28.6-67.3s-9.5-49-28.6-67.3zM2412.5 231c-11.3 11.2-25.7 16.8-43.1 16.8-17.4 0-31.8-5.6-43.1-16.8-11.3-11.2-17-25.7-17-43.4 0-17.8 5.6-32.2 17-43.4 11.3-11.2 25.7-16.8 43.1-16.8 17.4 0 31.8 5.6 43.1 16.8 11.3 11.2 17 25.7 17 43.4s-5.6 32.2-17 43.4zM2652.7 118.5c-17.8-17.2-39.2-25.8-64.2-25.8s-45.2 11.7-60.6 35.2V95.4h-39.3v253.3h39.3v-95.6c18.7 20.5 39.8 30.7 63.3 30.7s44.1-9 61.7-26.9 26.5-41.2 26.5-69.8c0-28.6-9-51.4-26.7-68.6zm-29.8 113.7c-11.4 11.1-24.9 16.7-40.3 16.7-15.5 0-28.5-5.6-39.3-16.9-10.8-11.3-16.1-25.8-16.1-43.5 0-17.6 5.4-32.4 16.1-44.1 10.7-11.8 23.9-17.6 39.6-17.6 15.7 0 29.1 5.9 40.3 17.6 11.2 11.7 16.8 26.5 16.8 44.3 0 17.9-5.7 32.4-17.1 43.5zM2172.2 88.8c-13.8 0-26.7 3.3-38.6 10-12 6.7-20.9 15.9-26.8 27.6V16.8h-41.4v265.6h41.4V179.1c0-17.7 5.3-31.1 15.9-40.3 10.6-9.2 23-13.8 37.3-13.8 30.1 0 45.1 17.6 45.1 52.7v104.7h41.4V165.5c0-24.8-6.8-43.8-20.5-57-13.7-13.2-31.6-19.7-53.8-19.7zM2017.6 170.2c-12.8-11.1-31.8-19.7-57.1-25.8-25.3-6.1-41.8-11.9-49.5-17.2-7.8-5.3-11.6-13-11.6-23s3.9-17.5 11.6-22.5c7.8-5 17.7-7.4 29.8-7.4 12.1 0 24.4 2.1 36.8 6.4 12.4 4.2 22.3 9.7 29.6 16.3l22.2-31.5c-11.3-9.4-24.7-16.7-40.2-21.9-15.5-5.2-31.1-7.8-46.9-7.8-24.4 0-44.9 6.2-61.5 18.6-16.6 12.4-24.8 30-24.8 52.9s7.3 39.9 21.9 50.9c7.3 5.9 15.6 10.7 25 14.3 9.4 3.7 23.1 7.7 41.2 12 18.1 4.4 30.8 9.2 38.2 14.5 7.4 5.3 11.1 12.7 11.1 22.3 0 9.6-3.9 17.2-11.8 23-7.9 5.8-18.5 8.7-31.9 8.7-26.8 0-52.6-10.8-77.5-32.5l-26.1 31.5c29.8 26.7 64 40 102.6 40 26.3 0 47.6-6.7 63.8-20.2 16.2-13.4 24.3-30.9 24.3-52.5 0-21.7-6.4-38-19.2-49.1z" clip-rule="evenodd"/>
  <path fill="url(#paint0_linear)" d="M1066 661.2V542.8l3.8-131-6-1.3-101.7 250.7h-27.3L833.4 411.1l-6 1.3 4 130.5v118.3h-34.9V355.4h47.9l104.2 260 104.1-260h48.2v305.8H1066z"/>
  <path fill="url(#paint1_linear)" d="M1244.7 665.5c-22 0-40.2-6.3-54.2-18.6-14.1-12.4-20.9-27.7-20.9-46.8 0-23.3 8.6-40.9 26.3-53.7 17.7-12.9 43.2-19.4 75.6-19.4h41.7v-21.4c0-14.7-4.5-26.5-13.4-35.3-8.9-8.8-21.9-13.2-38.9-13.2-14.8 0-27.4 3.8-37.5 11.3-9.4 7-14.6 15.5-15.5 25.3h-33.6c.7-9.7 4.6-19.3 11.6-28.5 7.8-10.3 18.7-18.6 32.2-24.7 13.6-6.1 28.8-9.2 45.1-9.2 25.8 0 46.2 6.5 60.7 19.3 14.4 12.7 22 30.5 22.5 52.9v106.7c0 21.1 2.7 38.3 8 51.1h-36.3c-1.8-4.5-3.3-11.8-4.5-21.7l-.8-6.6-4.6 4.8c-17.5 18.4-39 27.7-63.5 27.7zm34.3-116.8c-50.4 0-76 15.4-76 45.8 0 13.3 4.6 24 13.5 31.5 8.8 7.5 20.3 11.2 34 11.2 12.9 0 25.4-3.4 36.9-10.1 11.6-6.7 20.2-15.6 25.5-26.4l.3-.6v-51.4H1279z"/>
  <path fill="url(#paint2_linear)" d="M1417.6 661.2V435.6h32.4l.8 34.2 5.5-8.8c12.5-19.9 29.7-29.6 52.6-29.6 6.1 0 11 .6 14.4 1.9v31.2c-5.2-.7-10.7-1-16.4-1-27.3 0-46.1 11.8-55.8 35.1l-.2.6v162.1h-33.3v-.1z"/>
  <path fill="url(#paint3_linear)" d="M1712.8 661.2l-82.1-109-28.3 29.5v79.5H1569V338.3h33.4v204.6l26.8-32.1 71.1-75.2h39.7l-87.1 93.5 98.6 132.1h-38.7z"/>
  <path fill="url(#paint4_linear)" d="M1882.8 665.5c-30.4 0-55.5-10.1-74.5-30-19-20-28.7-47.1-28.7-80.7v-7.3c0-22.4 4.3-42.7 12.9-60.3 8.5-17.5 20.5-31.3 35.7-41.2 15.2-9.8 31.9-14.8 49.6-14.8 29 0 51.9 9.7 67.9 28.7 16.2 19.2 24.3 47.2 24.3 83.3v13.4h-157.2l.1 3.2c.6 23.5 7.6 42.9 20.9 57.4 13.3 14.7 30.5 22.1 51.1 22.1 14.5 0 27-3 37.2-9 9.2-5.4 17.4-12.5 24.4-21.1l19.5 15.2c-18.8 27.3-46.7 41.1-83.2 41.1zm-5-207.9c-16.8 0-31.2 6.2-42.6 18.5-11.3 12.1-18.3 29.2-21 50.7l-.4 3.5h122.8v-6.1c-1.2-20.9-6.9-37.3-17.1-48.9-10.2-11.7-24.2-17.7-41.7-17.7z"/>
  <path fill="url(#paint5_linear)" d="M2089.4 665.5c-16.7 0-29.3-5-37.7-15-8.5-10.1-12.8-24.8-12.8-43.6V460h-42.2v-24.4h42.2v-56.2h33.4v56.2h43.3V460h-43.3v147.1c0 10 2.2 17.7 6.5 22.9 4.5 5.4 11.9 8.1 22.1 8.1 4.1 0 9.2-.6 15.7-1.9V662c-9.2 2.3-18.4 3.5-27.2 3.5z"/>
  <path fill="url(#paint6_linear)" d="M2174.3 661.2V435.6h33.4v225.7h-33.4v-.1zm17-270.9c-6.9 0-11.8-1.8-15.1-5.4-3.4-3.7-5.1-8.3-5.1-14 0-5.7 1.7-10.4 5.1-14.2 3.3-3.8 8.3-5.6 15.1-5.6 6.9 0 11.8 1.8 15.3 5.6 3.5 3.9 5.2 8.5 5.2 14.2 0 5.7-1.7 10.2-5.2 13.9-3.4 3.7-8.4 5.5-15.3 5.5z"/>
  <path fill="url(#paint7_linear)" d="M2422.8 661.2V510.9c-.1-17.5-4.3-30.7-12.3-39.2-8.1-8.6-20.6-13-37.3-13-13.5 0-25.5 3.7-35.7 10.9-10.1 7.1-18.1 16.6-23.7 28.2l-.3.6v162.9H2280V435.6h31.4l1.5 34.5 5.2-6.6c17-21.4 39.6-32.3 67-32.3 47.4 0 70.6 26.1 71 79.9v150.1h-33.3z"/>
  <path fill="url(#paint8_linear)" d="M2609.8 752.6c-16.2 0-32.3-3.5-47.8-10.5-14.5-6.5-25.9-15.3-34-26.3l16.6-19.1c17.1 19.8 38.1 29.8 62.4 29.8 20.1 0 36-5.8 47.3-17.2 11.3-11.4 17.1-27.6 17.1-48.1v-28.3l-5.5 6.3c-15.2 17.5-36.2 26.4-62.6 26.4-26 0-47.3-10.6-63.4-31.6-16.3-21.2-24.5-50.6-24.5-87.5 0-35.3 8.2-63.7 24.4-84.3 16-20.5 37.5-30.9 64-30.9 27.2 0 48.6 9.7 63.8 28.8l5 6.3 2.3-30.8h30.2v223.2c0 29-8.7 52.1-25.7 68.7-17.2 16.6-40.5 25.1-69.6 25.1zm3.9-293.9c-20.3 0-36.3 8-47.8 23.8C2554.7 498 2549 521 2549 551c0 26.7 5.6 48 16.7 63.4 11.3 15.7 27.3 23.7 47.6 23.7 26.2 0 45.6-12 57.9-35.8l.3-.7V494.2l-.4-.7c-12.7-23.1-32-34.8-57.4-34.8z"/>
  <path fill="#767676" d="M1760.1 903.9l11.7-46.4h10.4l-17.7 60.7h-8.4l-14.8-46-14.4 46h-8.4l-17.6-60.7h10.3l12 45.5 14.1-45.5h8.4l14.4 46.4zm33.4-62.6c0-1.7.5-3.1 1.5-4.3 1-1.2 2.6-1.7 4.6-1.7 2 0 3.6.6 4.6 1.7 1 1.2 1.6 2.6 1.6 4.3 0 1.7-.5 3.1-1.6 4.2-1 1.1-2.6 1.7-4.6 1.7-2 0-3.5-.6-4.6-1.7-1-1.1-1.5-2.5-1.5-4.2zm11.2 76.9h-10.4v-60.7h10.4v60.7zm31.4-75.5v14.7h11.3v8h-11.3v37.7c0 2.4.5 4.3 1.5 5.5 1 1.2 2.7 1.8 5.2 1.8 1.2 0 2.8-.2 4.9-.7v8.4c-2.7.7-5.4 1.1-8 1.1-4.6 0-8.1-1.4-10.5-4.2-2.3-2.8-3.5-6.8-3.5-11.9v-37.7h-11.1v-8h11.1v-14.7h10.4zm34.5 22.1c4.6-5.6 10.6-8.5 18-8.5 12.8 0 19.3 7.2 19.4 21.7v40.1h-10.4V878c0-4.4-1-7.6-3-9.7-2-2.1-5-3.1-9.2-3.1-3.4 0-6.3.9-8.9 2.7-2.6 1.8-4.5 4.1-5.9 7.1v43.3h-10.4V832h10.4v32.8z"/>
  <path fill="url(#paint9_linear)" fill-rule="evenodd" d="M206.7 97.1C122.4 97.1 54 165.4 54 249.8v359.9H.7V249.8c0-55.8 30-104.6 74.6-131.1 22.9-13.7 49.5-21.5 78.1-21.5h53.3v-.1z" clip-rule="evenodd"/>
  <path fill="url(#paint10_linear)" fill-rule="evenodd" d="M576.5 43.9v53.2H206.7C122.4 97.1 54 165.4 54 249.8v-53.3c0-28.4 7.7-55.1 21.3-77.8C101.9 74 150.7 44 206.6 44h369.9v-.1z" clip-rule="evenodd"/>
  <path fill="url(#paint11_linear)" fill-rule="evenodd" d="M576.5 457v53.2c0 28.5-7.8 55.3-21.4 78.2-26.7 44.6-75.4 74.5-131.2 74.5H54.1v-53.2h369.8c84.3-.1 152.6-68.4 152.6-152.7z" clip-rule="evenodd"/>
  <path fill="url(#paint12_linear)" fill-rule="evenodd" d="M629.8 97.1V457c0 55.9-30 104.7-74.7 131.3-22.8 13.6-49.4 21.3-77.9 21.3h-53.3c84.3 0 152.7-68.3 152.7-152.7V97.1h53.2z" clip-rule="evenodd"/>
  <path fill="url(#paint13_linear)" fill-rule="evenodd" d="M423.9 609.6H54.1V249.8c0-84.3 68.3-152.7 152.7-152.7h369.8V457c0 84.3-68.4 152.6-152.7 152.6z" clip-rule="evenodd"/>
  <path fill="url(#paint14_linear)" fill-rule="evenodd" d="M481 321l-5.7-9.4-59.4-98.3c-1.5-1.9-3.1-3.6-4.9-4.9-5.4-4.2-12.3-6.2-19.3-5.4l-122.9 26.9c-9.5 1.1-17.7 7.2-21.4 16.1l-90.9 211.7c-.2.4-.4.8-.5 1.4-.5 1.5-.9 2.9-1.3 4.5-2.2 11.9 4.1 24.1 15.7 29.2l188.1 80.6c13.5 5.9 29.2-.3 34.9-13.8l90.9-211.8c3.7-9.1 2.5-19.2-3.3-26.8zm-136.3-91.5c1.8 0 3.4.1 5.1.4 1.8-.3 3.6-.4 5.3-.4 20.3 0 36.9 15.7 38.3 35.6.1.9.1 1.9.1 2.8 0 1.7-.1 3.3-.3 4.9 6.7 6.9 10.8 16.3 10.8 26.5 0 21.1-17.2 38.3-38.5 38.3-20.4 0-36.9-15.7-38.3-35.5-12.4-6.4-21-19.3-21-34.3 0-21.1 17.2-38.3 38.5-38.3z" clip-rule="evenodd" opacity=".3"/>
  <path fill="url(#paint15_linear)" fill-rule="evenodd" d="M470.6 289.6l-49.1-81.2-16-26.4c-5.6-7.5-14.8-11.4-24.2-10.3l-122.9 26.9c-9.5 1.1-17.7 7.2-21.4 16l-91 211.6c-5.2 12-.7 25.8 9.9 32.7 1.3.8 2.5 1.6 4 2.2l5.2 2.3L348 541.8c13.5 5.9 29.2-.4 34.9-13.9l90.9-211.8c.6-1.5 1.1-3 1.5-4.5 1.8-7.6.1-15.7-4.7-22zm-153.9-21.7c0-19.4 14.3-35.5 33.1-38 1.8-.3 3.6-.4 5.3-.4 20.3 0 36.9 15.7 38.3 35.6.1.9.1 1.9.1 2.8 0 1.7-.1 3.3-.3 4.9-2.4 18.9-18.6 33.5-38.1 33.5-6.3 0-12.2-1.5-17.5-4.2-12.4-6.3-20.9-19.2-20.9-34.2z" clip-rule="evenodd"/>
  <path fill="url(#paint16_linear)" d="M527.7 43.9c-.8-2-1.7-4.2-2.7-6.2-9.5-19.1-28-31.1-54.8-35.6-31.4-5.3-57.9 1.9-78.6 21.6-6.2 5.9-11.6 12.7-16.3 20.2-2.1 3.2-4.2 6.7-6 10.2-39.6 75.6-25.4 205.7-24.6 212 .6 3.6 6.2 4.3 10.4 4.3h1.3c4.6-.3 9.8-2.3 9.3-6.6-.2-1.5-15.8-143.6 27.9-209.6 2.3-3.7 5-7 7.8-10.2 1.4-1.7 3-3.3 4.7-4.9 15.8-15 35.6-20.2 60.5-16 18.3 3.1 30.7 9.9 37.5 20.9h23.6v-.1z"/>
  <path fill="#767676" d="M2350.4 803.1h17.9v120h-17.9v-120zM2121.9 844c-22.6 0-41 17.2-41 40.8 0 23.5 18.4 40.8 41 40.8s41-17.3 41-40.8c0-23.7-18.4-40.8-41-40.8zm0 65.6c-12.4 0-23-10.2-23-24.7 0-14.7 10.7-24.7 23-24.7s23 10.1 23 24.7c.1 14.5-10.6 24.7-23 24.7zM2015.5 856.5v17.3h41.4c-1.2 9.7-4.5 16.9-9.4 21.8-6 6-15.5 12.7-32 12.7-25.5 0-45.5-20.6-45.5-46.1s19.9-46.1 45.5-46.1c13.8 0 23.8 5.4 31.2 12.4l12.2-12.2c-10.4-9.9-24.1-17.5-43.5-17.5-35 0-64.3 28.5-64.3 63.4 0 35 29.4 63.4 64.3 63.4 18.9 0 33.1-6.2 44.2-17.8 11.5-11.5 15-27.5 15-40.5 0-4-.3-7.7-.9-10.8h-58.2zM2417.6 909.6c-9.1 0-15.6-4.2-19.8-12.4l54.6-22.6-1.8-4.6c-3.4-9.1-13.8-26-35-26-21 0-38.5 16.6-38.5 40.8 0 22.9 17.3 40.8 40.5 40.8 18.7 0 29.5-11.5 34-18.1l-13.9-9.3c-4.7 6.9-11 11.4-20.1 11.4zm-1.4-49.8c7.1 0 13.2 3.5 15.2 8.7l-36.5 15.2c-.5-15.9 12.1-23.9 21.3-23.9zM2321 853.1h-.6c-4-4.8-11.8-9.1-21.5-9.1-20.4 0-39.1 17.9-39.1 41 0 22.9 18.7 40.7 39.1 40.7 9.7 0 17.5-4.3 21.5-9.3h.6v5.9c0 15.6-8.4 24-21.8 24-11 0-17.8-7.9-20.6-14.5l-15.6 6.5c4.5 10.8 16.4 24.1 36.2 24.1 21 0 38.8-12.4 38.8-42.5v-73.4h-17v6.6zm-20.6 56.5c-12.4 0-22.7-10.4-22.7-24.6 0-14.4 10.4-24.9 22.7-24.9 12.2 0 21.8 10.5 21.8 24.9.1 14.2-9.5 24.6-21.8 24.6zM2211.3 844c-22.6 0-41 17.2-41 40.8 0 23.5 18.4 40.8 41 40.8s41-17.3 41-40.8c0-23.7-18.4-40.8-41-40.8zm0 65.6c-12.4 0-23-10.2-23-24.7 0-14.7 10.7-24.7 23-24.7s23 10.1 23 24.7c.1 14.5-10.6 24.7-23 24.7z"/>
  <defs>
    <linearGradient id="paint0_linear" x1="784.331" x2="2600.32" y1="508.333" y2="508.333" gradientUnits="userSpaceOnUse">
      <stop stop-color="#9BA6AF"/>
      <stop offset=".314" stop-color="#929AA1"/>
      <stop offset=".904" stop-color="#7A7B7C"/>
      <stop offset=".999" stop-color="#767676"/>
    </linearGradient>
    <linearGradient id="paint1_linear" x1="796.995" x2="2588.27" y1="548.414" y2="548.414" gradientUnits="userSpaceOnUse">
      <stop stop-color="#9BA6AF"/>
      <stop offset=".314" stop-color="#929AA1"/>
      <stop offset=".904" stop-color="#7A7B7C"/>
      <stop offset=".999" stop-color="#767676"/>
    </linearGradient>
    <linearGradient id="paint2_linear" x1="819.488" x2="2569.28" y1="546.271" y2="546.271" gradientUnits="userSpaceOnUse">
      <stop stop-color="#9BA6AF"/>
      <stop offset=".314" stop-color="#929AA1"/>
      <stop offset=".904" stop-color="#7A7B7C"/>
      <stop offset=".999" stop-color="#767676"/>
    </linearGradient>
    <linearGradient id="paint3_linear" x1="822.47" x2="2585.2" y1="499.756" y2="499.756" gradientUnits="userSpaceOnUse">
      <stop stop-color="#9BA6AF"/>
      <stop offset=".314" stop-color="#929AA1"/>
      <stop offset=".904" stop-color="#7A7B7C"/>
      <stop offset=".999" stop-color="#767676"/>
    </linearGradient>
    <linearGradient id="paint4_linear" x1="815.778" x2="2610.14" y1="548.414" y2="548.414" gradientUnits="userSpaceOnUse">
      <stop stop-color="#9BA6AF"/>
      <stop offset=".314" stop-color="#929AA1"/>
      <stop offset=".904" stop-color="#7A7B7C"/>
      <stop offset=".999" stop-color="#767676"/>
    </linearGradient>
    <linearGradient id="paint5_linear" x1="844.257" x2="2605.66" y1="522.481" y2="522.481" gradientUnits="userSpaceOnUse">
      <stop stop-color="#9BA6AF"/>
      <stop offset=".314" stop-color="#929AA1"/>
      <stop offset=".904" stop-color="#7A7B7C"/>
      <stop offset=".999" stop-color="#767676"/>
    </linearGradient>
    <linearGradient id="paint6_linear" x1="969.217" x2="2575.21" y1="506.19" y2="506.19" gradientUnits="userSpaceOnUse">
      <stop stop-color="#9BA6AF"/>
      <stop offset=".314" stop-color="#929AA1"/>
      <stop offset=".904" stop-color="#7A7B7C"/>
      <stop offset=".999" stop-color="#767676"/>
    </linearGradient>
    <linearGradient id="paint7_linear" x1="835.461" x2="2625.18" y1="546.271" y2="546.271" gradientUnits="userSpaceOnUse">
      <stop stop-color="#9BA6AF"/>
      <stop offset=".314" stop-color="#929AA1"/>
      <stop offset=".904" stop-color="#7A7B7C"/>
      <stop offset=".999" stop-color="#767676"/>
    </linearGradient>
    <linearGradient id="paint8_linear" x1="839.448" x2="2633.56" y1="591.929" y2="591.929" gradientUnits="userSpaceOnUse">
      <stop stop-color="#9BA6AF"/>
      <stop offset=".314" stop-color="#929AA1"/>
      <stop offset=".904" stop-color="#7A7B7C"/>
      <stop offset=".999" stop-color="#767676"/>
    </linearGradient>
    <linearGradient id="paint9_linear" x1="-86.202" x2="265.86" y1="511.12" y2="160.666" gradientUnits="userSpaceOnUse">
      <stop stop-color="#4384F4"/>
      <stop offset=".344" stop-color="#4BA1F9"/>
      <stop offset=".761" stop-color="#54BEFD"/>
      <stop offset=".999" stop-color="#57C9FF"/>
    </linearGradient>
    <linearGradient id="paint10_linear" x1="122.405" x2="479.984" y1="307.115" y2="-48.831" gradientUnits="userSpaceOnUse">
      <stop stop-color="#FCBB04"/>
      <stop offset=".595" stop-color="#FECC1C"/>
      <stop offset=".999" stop-color="#FFD427"/>
    </linearGradient>
    <linearGradient id="paint11_linear" x1="139.052" x2="511.486" y1="770.269" y2="391.785" gradientUnits="userSpaceOnUse">
      <stop stop-color="#34A753"/>
      <stop offset=".217" stop-color="#3FB65A"/>
      <stop offset=".715" stop-color="#53D369"/>
      <stop offset=".999" stop-color="#5BDE6E"/>
    </linearGradient>
    <linearGradient id="paint12_linear" x1="709.254" x2="510.572" y1="149.015" y2="433.769" gradientUnits="userSpaceOnUse">
      <stop stop-color="#E7463B"/>
      <stop offset=".202" stop-color="#ED5458"/>
      <stop offset=".563" stop-color="#F76A88"/>
      <stop offset=".841" stop-color="#FD78A5"/>
      <stop offset=".999" stop-color="#FF7DB0"/>
    </linearGradient>
    <linearGradient id="paint13_linear" x1="63.99" x2="571.652" y1="603.553" y2="98.209" gradientUnits="userSpaceOnUse">
      <stop stop-color="#FFFDF9"/>
      <stop offset=".263" stop-color="#FAF9F6"/>
      <stop offset=".57" stop-color="#ECEDEC"/>
      <stop offset=".898" stop-color="#D5D9DB"/>
      <stop offset=".999" stop-color="#CCD2D5"/>
    </linearGradient>
    <linearGradient id="paint14_linear" x1="157.817" x2="486.083" y1="467.006" y2="336.793" gradientUnits="userSpaceOnUse">
      <stop stop-color="#4384F4"/>
      <stop offset=".344" stop-color="#4BA1F9"/>
      <stop offset=".761" stop-color="#54BEFD"/>
      <stop offset=".999" stop-color="#57C9FF"/>
    </linearGradient>
    <linearGradient id="paint15_linear" x1="147.435" x2="475.666" y1="435.606" y2="305.407" gradientUnits="userSpaceOnUse">
      <stop stop-color="#4384F4"/>
      <stop offset=".344" stop-color="#4BA1F9"/>
      <stop offset=".761" stop-color="#54BEFD"/>
      <stop offset=".999" stop-color="#57C9FF"/>
    </linearGradient>
    <linearGradient id="paint16_linear" x1="300.504" x2="507.767" y1="222.568" y2="16.252" gradientUnits="userSpaceOnUse">
      <stop stop-color="#4384F4"/>
      <stop offset=".344" stop-color="#4BA1F9"/>
      <stop offset=".761" stop-color="#54BEFD"/>
      <stop offset=".999" stop-color="#57C9FF"/>
    </linearGradient>
  </defs>
</svg>
