<svg width="40" height="40" viewBox="0 0 40 40" fill="none" xmlns="http://www.w3.org/2000/svg">
<path fill-rule="evenodd" clip-rule="evenodd" d="M12.9652 30.69C13.2846 30.548 13.6082 30.4171 13.9348 30.2944C14.3035 30.1559 14.6753 30.0257 15.0519 29.912C15.5209 29.7707 15.994 29.6432 16.473 29.5412C17.119 29.4041 17.7727 29.3024 18.4315 29.2387C18.0621 30.4002 17.6538 31.5549 17.2114 32.7023C17.2303 32.9246 17.2407 33.1482 17.2465 33.3725C18.1372 33.1968 19.0576 33.1027 20 33.1027C20.9424 33.1027 21.8624 33.1968 22.7535 33.3725C22.7593 33.1482 22.7693 32.9246 22.7883 32.7023C22.3458 31.5549 21.9379 30.4002 21.5681 29.2387C22.227 29.3024 22.881 29.4041 23.5267 29.5412C24.006 29.6432 24.4788 29.7707 24.9477 29.912C25.3243 30.0257 25.6961 30.1559 26.0648 30.2944C26.3915 30.4171 26.7154 30.548 27.0348 30.6904C29.301 31.6993 31.3671 33.1964 33.0614 35.1388C37.3082 31.4715 40 26.0517 40 20C40 8.9544 31.0456 0 20 0C8.95405 0 0 8.9544 0 20C0 26.0517 2.69145 31.4715 6.9383 35.1388C8.63291 33.1964 10.699 31.6993 12.9652 30.69Z" fill="#9FD6DC"/>
<path fill-rule="evenodd" clip-rule="evenodd" d="M14.2833 34.3085C15.2219 33.8936 16.2132 33.5762 17.2463 33.3726C17.2404 33.1483 17.2301 32.9247 17.2111 32.7024C17.6535 31.555 18.0619 30.4003 18.4312 29.2388C17.7724 29.3025 17.1188 29.4042 16.4727 29.5413C15.9937 29.6433 15.5206 29.7708 15.0517 29.9121C14.6751 30.0258 14.3033 30.156 13.9346 30.2945L15.3925 30.6477L14.2833 34.3085Z" fill="#4B4D4A"/>
<path fill-rule="evenodd" clip-rule="evenodd" d="M10.8466 36.4646C10.8831 36.0921 10.9055 35.7159 10.9055 35.3362C10.9055 35.1074 11.0909 34.922 11.3194 34.922H11.6829L12.9654 30.6899C10.6991 31.6992 8.63308 33.1964 6.93848 35.1387C7.87261 35.9454 8.88117 36.6665 9.95417 37.2913C10.2398 37.0035 10.5375 36.7272 10.8466 36.4646Z" fill="#4B4D4A"/>
<path fill-rule="evenodd" clip-rule="evenodd" d="M27.0352 30.6902L28.3177 34.9219H28.6808C28.9096 34.9219 29.0947 35.1073 29.0947 35.3361C29.0947 35.7158 29.1171 36.092 29.1536 36.4645C29.463 36.7271 29.7604 37.0034 30.046 37.2912C31.119 36.6664 32.1276 35.9453 33.0617 35.1386C31.3675 33.1963 29.3014 31.6991 27.0352 30.6902Z" fill="#4B4D4A"/>
<path fill-rule="evenodd" clip-rule="evenodd" d="M24.6075 30.6477L26.065 30.2945C25.6963 30.156 25.3245 30.0258 24.9479 29.9121C24.479 29.7708 24.0062 29.6433 23.5269 29.5413C22.8812 29.4042 22.2272 29.3025 21.5684 29.2388C21.9381 30.4003 22.3461 31.555 22.7885 32.7024C22.7695 32.9247 22.7595 33.1483 22.7537 33.3726C23.7864 33.5762 24.778 33.8936 25.717 34.3088L24.6075 30.6477Z" fill="#4B4D4A"/>
<path fill-rule="evenodd" clip-rule="evenodd" d="M20.0002 34.9219H22.8185C22.7606 34.4026 22.7399 33.8854 22.7537 33.3723C21.8627 33.1966 20.9426 33.1025 20.0002 33.1025C19.0578 33.1025 18.1375 33.1966 17.2468 33.3723C17.2602 33.8854 17.2395 34.4026 17.1816 34.9219H20.0002Z" fill="#1A1919"/>
<path fill-rule="evenodd" clip-rule="evenodd" d="M9.9541 37.2912C10.1863 37.4266 10.421 37.5586 10.6591 37.6847C10.7428 37.284 10.8062 36.8771 10.8465 36.4646C10.5375 36.7272 10.2398 37.0035 9.9541 37.2912Z" fill="#1A1919"/>
<path fill-rule="evenodd" clip-rule="evenodd" d="M14.0977 34.9221H17.1816C17.2395 34.4028 17.2601 33.8856 17.2467 33.3726C16.2137 33.5762 15.2223 33.8936 14.2837 34.3084L14.0977 34.9221Z" fill="#1A1919"/>
<path fill-rule="evenodd" clip-rule="evenodd" d="M29.1533 36.4646C29.1936 36.8771 29.2574 37.284 29.3408 37.6847C29.5789 37.5586 29.8135 37.4266 30.0458 37.2912C29.7601 37.0035 29.4627 36.7272 29.1533 36.4646Z" fill="#1A1919"/>
<path fill-rule="evenodd" clip-rule="evenodd" d="M25.9022 34.9221L25.7165 34.3088C24.7775 33.8936 23.7858 33.5762 22.7531 33.3726C22.7394 33.8856 22.76 34.4028 22.8179 34.9221H25.9022Z" fill="#1A1919"/>
<path fill-rule="evenodd" clip-rule="evenodd" d="M14.0974 34.9223L15.3926 30.6479L13.9347 30.2947C13.6081 30.4173 13.2845 30.5483 12.9651 30.6902L11.6826 34.9223H14.0974Z" fill="#9E8D6F"/>
<path fill-rule="evenodd" clip-rule="evenodd" d="M25.7169 34.3089L25.9027 34.9223H28.3174L27.0349 30.6906C26.7155 30.5483 26.3916 30.4173 26.065 30.2947L24.6074 30.6479L25.7169 34.3089Z" fill="#9E8D6F"/>
<path fill-rule="evenodd" clip-rule="evenodd" d="M11.7246 35.8123C11.7543 35.7914 11.7839 35.7706 11.8128 35.7498H11.7286C11.7278 35.7706 11.7254 35.7914 11.7246 35.8123Z" fill="#B8A98F"/>
<path fill-rule="evenodd" clip-rule="evenodd" d="M19.9999 35.7498H11.7626C11.7502 35.7587 11.7374 35.7677 11.7247 35.7766C11.6971 36.5581 11.5924 37.3245 11.4229 38.0701C14.0223 39.3061 16.9298 39.9997 19.9999 39.9997V35.7498Z" fill="#B8A98F"/>
<path fill-rule="evenodd" clip-rule="evenodd" d="M28.3223 35.7498H28.2373C28.267 35.7706 28.2966 35.7914 28.3255 35.8123C28.3247 35.7914 28.3223 35.7706 28.3223 35.7498Z" fill="#9E8D6F"/>
<path fill-rule="evenodd" clip-rule="evenodd" d="M28.237 35.7498H20V39.9997C23.0698 39.9997 25.9773 39.3061 28.5771 38.0701C28.4072 37.3245 28.3025 36.5581 28.2749 35.7766C28.2625 35.7677 28.2497 35.7587 28.237 35.7498Z" fill="#9E8D6F"/>
<path fill-rule="evenodd" clip-rule="evenodd" d="M29.1534 36.4645C29.1169 36.092 29.0945 35.7158 29.0945 35.3361C29.0945 35.1073 28.9094 34.9219 28.6806 34.9219H11.3194C11.0909 34.9219 10.9055 35.1073 10.9055 35.3361C10.9055 35.7158 10.8832 36.092 10.8466 36.4645C10.8063 36.877 10.7429 37.2839 10.6592 37.6847C10.9111 37.818 11.165 37.9476 11.4231 38.0702C11.5926 37.3246 11.6974 36.5582 11.7249 35.7768C11.7253 35.7678 11.7263 35.7588 11.7267 35.7499H28.2737C28.2737 35.7588 28.2747 35.7678 28.2751 35.7768C28.3027 36.5582 28.4074 37.3246 28.5773 38.0702C28.835 37.9476 29.089 37.818 29.3408 37.6847C29.2575 37.2839 29.1937 36.877 29.1534 36.4645Z" fill="#806D59"/>
<path fill-rule="evenodd" clip-rule="evenodd" d="M25.9744 32.3708C25.8341 32.2089 25.689 32.0365 25.5391 31.8401C25.689 32.0365 25.8341 32.2089 25.9744 32.3708Z" fill="#4B4D4A"/>
<path fill-rule="evenodd" clip-rule="evenodd" d="M26.5212 32.8478C26.5212 32.8478 26.5236 32.856 26.5283 32.8701C26.5236 32.856 26.5212 32.8478 26.5212 32.8478C26.5212 32.8478 26.1706 32.5736 25.7266 32.0684C26.1706 32.5736 26.5212 32.8478 26.5212 32.8478Z" fill="#9E8D6F"/>
<path fill-rule="evenodd" clip-rule="evenodd" d="M33.1025 20.1958C33.1025 20.1909 33.1033 20.1869 33.1033 20.1821C33.1033 20.1861 33.1025 20.1909 33.1025 20.1958Z" fill="#FFFFFE"/>
<path fill-rule="evenodd" clip-rule="evenodd" d="M33.3164 15.5493C33.313 15.5448 33.3099 15.541 33.3064 15.5366H33.3068C33.1407 15.3057 32.9691 15.0952 32.7933 14.9039C32.7927 14.9036 32.7923 14.9029 32.7916 14.9022C32.7923 14.9029 32.7927 14.9036 32.7933 14.9039C32.7916 14.9022 32.7902 14.9005 32.7885 14.8988C32.7086 14.8119 32.628 14.7292 32.5463 14.651C32.5153 14.6214 32.4836 14.5955 32.4526 14.5673C32.4009 14.5208 32.3499 14.4725 32.2979 14.4294V16.2905L33.0101 19.5525C33.018 19.5777 33.0273 19.6015 33.0342 19.6277L33.5276 20.1807L33.5325 20.1752H34.049C34.0497 20.1273 34.0524 20.0801 34.0524 20.0322V20.0315C34.0524 18.4926 33.7995 17.0144 33.3416 15.6292V15.6296C33.3329 15.6031 33.3254 15.5758 33.3164 15.5493Z" fill="#B6B7B4"/>
<path fill-rule="evenodd" clip-rule="evenodd" d="M33.1033 20.1891C33.1033 20.1843 33.1025 20.1803 33.1025 20.1763C33.1025 20.1803 33.1033 20.1843 33.1033 20.1891Z" fill="#B6B7B4"/>
<path fill-rule="evenodd" clip-rule="evenodd" d="M33.1092 19.8703C33.1103 19.8758 33.1126 19.8803 33.1137 19.8858C33.1142 19.8889 33.1159 19.892 33.1165 19.8951C33.1165 19.8954 33.1165 19.8961 33.1165 19.8965C33.1322 19.9729 33.1383 20.0525 33.1406 20.1332C33.1411 20.148 33.145 20.1618 33.145 20.1766C33.145 20.1783 33.1456 20.18 33.1456 20.1821C33.1456 20.1842 33.145 20.1859 33.145 20.188C33.145 20.2038 33.1411 20.2186 33.1406 20.2345C33.1378 20.3134 33.1316 20.3916 33.117 20.4667C33.117 20.4671 33.117 20.4674 33.117 20.4678C33.1159 20.4719 33.1142 20.4753 33.1137 20.4791C33.1126 20.4853 33.1098 20.4908 33.1081 20.4967C33.0902 20.5787 33.0667 20.658 33.0353 20.7334C33.0353 20.7338 33.0347 20.7341 33.0347 20.7345L33.0392 20.7317C33.0398 20.7303 33.0403 20.7293 33.0409 20.7279L33.8359 20.1807L33.0342 19.6277C33.0342 19.628 33.0342 19.6284 33.0342 19.6291C33.0667 19.7059 33.0907 19.7869 33.1092 19.8703Z" fill="#5F6360"/>
<path fill-rule="evenodd" clip-rule="evenodd" d="M32.3264 19.9986C32.1596 19.9986 32.0245 19.767 32.0245 19.4813C32.0245 19.1954 32.1596 18.9638 32.3264 18.9638C32.4932 18.9638 32.6282 19.1954 32.6282 19.4813C32.6282 19.767 32.4932 19.9986 32.3264 19.9986ZM33.0796 20.4967C33.081 20.4863 33.0837 20.477 33.0851 20.4667C33.094 20.3916 33.0978 20.3133 33.0996 20.2344C33.0999 20.2165 33.1027 20.2 33.1027 20.1821C33.1027 20.1652 33.0999 20.1497 33.0996 20.1331C33.0982 20.0525 33.0944 19.9729 33.0847 19.8964C33.0837 19.8874 33.0813 19.8792 33.0803 19.8702C33.0689 19.7868 33.0541 19.7059 33.0341 19.629C33.0272 19.6021 33.0179 19.578 33.01 19.5522C32.9624 19.3954 32.898 19.2572 32.8215 19.1425C32.8112 19.127 32.8008 19.1122 32.7901 19.0977C32.7691 19.0694 32.7478 19.0419 32.7254 19.0174C32.6923 18.9816 32.6582 18.9485 32.622 18.9213C32.6085 18.9106 32.5937 18.9037 32.5796 18.8944C32.5486 18.8744 32.5165 18.8568 32.4838 18.8434C32.4697 18.8375 32.4556 18.832 32.4411 18.8275C32.3942 18.8131 32.347 18.8027 32.2977 18.8027C32.2485 18.8027 32.2013 18.8131 32.1544 18.8275C32.1399 18.832 32.1258 18.8375 32.1117 18.8434C32.0789 18.8568 32.0469 18.8744 32.0155 18.8944C32.0018 18.9037 31.9873 18.9106 31.9735 18.9213C31.9373 18.9485 31.9032 18.9816 31.8701 19.0174C31.8477 19.0419 31.8264 19.0694 31.8057 19.0977C31.795 19.1122 31.7843 19.127 31.774 19.1425C31.6975 19.2576 31.6327 19.3957 31.5855 19.5522C31.5834 19.5587 31.5814 19.5646 31.5797 19.5711C31.5586 19.6428 31.5424 19.7186 31.5287 19.7961C31.5245 19.8199 31.5194 19.8427 31.5159 19.8671C31.5035 19.9539 31.4973 20.0446 31.4956 20.1373C31.4952 20.1504 31.4932 20.1624 31.4932 20.1752H31.4966C31.4966 20.937 31.857 21.5545 32.3015 21.5545C32.378 21.5545 32.4518 21.5345 32.5217 21.5004C32.5331 21.4945 32.5441 21.489 32.5551 21.4825C32.5844 21.4659 32.6127 21.4477 32.6402 21.4256C32.6554 21.4132 32.6695 21.3987 32.684 21.385C32.7195 21.3515 32.7533 21.314 32.7853 21.2723C32.8077 21.2433 32.8294 21.2141 32.8497 21.1813C32.8625 21.1606 32.8746 21.1382 32.8866 21.1158C32.909 21.0745 32.9304 21.0311 32.9497 20.9853C32.9569 20.9687 32.9641 20.9525 32.9707 20.9356C32.9952 20.8715 33.0169 20.804 33.0348 20.7334C33.0541 20.6579 33.0685 20.5787 33.0796 20.4967Z" fill="#1A1919"/>
<path fill-rule="evenodd" clip-rule="evenodd" d="M32.4263 18.9634C32.2048 18.9634 32.0254 19.1949 32.0254 19.4809C32.0254 19.7666 32.2048 19.9981 32.4263 19.9981C32.6478 19.9981 32.8271 19.7666 32.8271 19.4809C32.8271 19.1949 32.6478 18.9634 32.4263 18.9634Z" fill="#FFFFFE"/>
<path fill-rule="evenodd" clip-rule="evenodd" d="M31.5859 19.5522C31.6331 19.3958 31.6979 19.2576 31.7744 19.1426C31.7848 19.127 31.7954 19.1122 31.8061 19.0978C31.8268 19.0695 31.8482 19.0419 31.8706 19.0175C31.9033 18.9813 31.9377 18.9489 31.9739 18.9213C31.9877 18.9107 32.0022 18.9038 32.016 18.8945C32.0473 18.8741 32.0794 18.8569 32.1121 18.8435C32.1262 18.8376 32.1404 18.8321 32.1548 18.8276C32.2013 18.8128 32.2489 18.8028 32.2982 18.8028C32.3474 18.8028 32.395 18.8128 32.4415 18.8276C32.456 18.8321 32.4701 18.8376 32.4842 18.8435C32.517 18.8569 32.549 18.8741 32.58 18.8945C32.5942 18.9038 32.609 18.9107 32.6224 18.9213C32.6586 18.9489 32.693 18.9813 32.7258 19.0175C32.7482 19.0419 32.7695 19.0695 32.7906 19.0978C32.8012 19.1122 32.8116 19.127 32.8219 19.1426C32.8984 19.2573 32.9628 19.3955 33.0104 19.5522V19.5526L32.2982 16.2905L31.5859 19.5522Z" fill="#8A8D88"/>
<path fill-rule="evenodd" clip-rule="evenodd" d="M20.9757 19.9303C20.5849 19.9303 20.2679 19.6133 20.2679 19.2226C20.2679 18.8315 20.5849 18.5148 20.9757 18.5148C21.3668 18.5148 21.6838 18.8315 21.6838 19.2226C21.6838 19.6133 21.3668 19.9303 20.9757 19.9303ZM22.859 20.1514C22.858 20.086 22.8538 20.0212 22.8463 19.9574C22.8463 19.9564 22.8459 19.9554 22.8459 19.9547C22.8383 19.8916 22.828 19.8299 22.8146 19.769C22.8142 19.7676 22.8135 19.7659 22.8132 19.7645C22.7997 19.7042 22.7835 19.6449 22.7642 19.587C22.7639 19.586 22.7632 19.5846 22.7629 19.5832C22.7436 19.5253 22.7215 19.4685 22.6971 19.4134C22.6964 19.412 22.6957 19.4109 22.6953 19.4099C22.6705 19.3544 22.643 19.3 22.613 19.2476C22.5213 19.087 22.4069 18.9416 22.2743 18.8152C22.1058 18.6546 21.9076 18.5247 21.6888 18.4348C21.6871 18.4341 21.685 18.4334 21.6833 18.4327C21.5755 18.3889 21.4628 18.3545 21.3463 18.3311C21.3432 18.3307 21.3405 18.3304 21.3374 18.3297C21.2206 18.3069 21.0996 18.2942 20.9759 18.2942C20.8543 18.2942 20.7358 18.3066 20.621 18.329C20.6169 18.3297 20.6127 18.33 20.6086 18.3307C20.4942 18.3535 20.3836 18.3869 20.2778 18.4296C20.2751 18.4306 20.272 18.4313 20.2692 18.4327C20.1617 18.4765 20.059 18.5299 19.9625 18.5919C19.9622 18.5919 19.9618 18.5922 19.9615 18.5922C19.864 18.655 19.773 18.7263 19.6886 18.8052L19.6865 18.8117L19.6796 18.8135C19.5453 18.941 19.4298 19.0881 19.3375 19.25C19.3364 19.2518 19.3354 19.2538 19.3344 19.2555C19.3061 19.3055 19.2806 19.3568 19.2572 19.4092C19.2548 19.4147 19.2517 19.4203 19.2493 19.4258C19.2276 19.4747 19.2093 19.5247 19.1921 19.5753C19.189 19.5853 19.1845 19.5946 19.1814 19.6046C19.1662 19.6518 19.1542 19.7004 19.1428 19.7493C19.1397 19.7631 19.1352 19.7765 19.1321 19.7907C19.1221 19.8386 19.1152 19.8878 19.1087 19.9375C19.107 19.9523 19.1035 19.9671 19.1021 19.9822C19.0952 20.0467 19.0918 20.1122 19.0918 20.1787C19.0918 20.3034 19.1045 20.425 19.1276 20.5429C19.128 20.5453 19.1283 20.5477 19.1287 20.5501C19.1524 20.6679 19.1872 20.7813 19.2317 20.8899C19.2324 20.8916 19.2327 20.893 19.2334 20.8943C19.324 21.1142 19.4553 21.313 19.6173 21.4822C19.7455 21.6155 19.8929 21.7303 20.0549 21.8216C20.0559 21.8223 20.0566 21.8226 20.0573 21.823C20.1079 21.8516 20.1603 21.8771 20.2137 21.9008C20.2179 21.9029 20.2223 21.9053 20.2265 21.907C20.2761 21.9287 20.3271 21.9473 20.3784 21.9646C20.3874 21.9677 20.3957 21.9715 20.4046 21.9742C20.4522 21.9894 20.5011 22.0014 20.55 22.0128C20.5635 22.0159 20.5762 22.02 20.5897 22.0228C20.6375 22.0331 20.6865 22.0397 20.7358 22.0459C20.7506 22.048 20.765 22.0511 20.7802 22.0528C20.8446 22.0593 20.9098 22.0631 20.9759 22.0631C21.2361 22.0631 21.4842 22.0104 21.7095 21.915C21.8222 21.8671 21.9293 21.8088 22.0296 21.7413C22.2302 21.6059 22.4031 21.4326 22.5386 21.232C22.6064 21.1321 22.6647 21.0249 22.7122 20.9122C22.8077 20.6866 22.8604 20.4388 22.8604 20.1787C22.8604 20.1742 22.8597 20.17 22.8597 20.1656C22.8597 20.1607 22.859 20.1563 22.859 20.1514Z" fill="#1A1919"/>
<path fill-rule="evenodd" clip-rule="evenodd" d="M20.9763 18.5151C20.5856 18.5151 20.2686 18.8318 20.2686 19.2229C20.2686 19.6136 20.5856 19.9306 20.9763 19.9306C21.3674 19.9306 21.6844 19.6136 21.6844 19.2229C21.6844 18.8318 21.3674 18.5151 20.9763 18.5151Z" fill="#FFFFFE"/>
<path fill-rule="evenodd" clip-rule="evenodd" d="M19.6802 18.8132L19.6871 18.8115L19.6891 18.8049L20.9871 14.8361C20.9871 14.8361 20.9871 14.6011 20.9871 14.3665C20.9871 14.3003 20.9871 14.2345 20.9871 14.1739C20.9871 14.1535 20.9871 14.1332 20.9871 14.1146C20.9871 14.085 20.9871 14.0577 20.9871 14.0329C20.9871 14.015 20.9871 13.9981 20.9871 13.9833C20.9871 13.9637 20.9871 13.9475 20.9871 13.934C20.9871 13.923 20.9871 13.9134 20.9871 13.9072C20.9871 13.9003 20.9868 13.8965 20.9868 13.8965C20.2642 13.7487 19.521 13.667 18.7605 13.667C18.5062 13.667 18.2547 13.6777 18.0042 13.6949C17.9676 13.6973 17.9311 13.6994 17.8946 13.7021C16.5921 13.801 15.3093 14.1408 14.1215 14.6831C13.103 15.148 12.1564 15.7606 11.3057 16.4873C11.3053 16.4877 11.3046 16.488 11.3043 16.4887C11.0759 16.6827 10.857 16.8877 10.6431 17.0972C10.6031 17.1365 10.5624 17.1751 10.5232 17.2151C10.3216 17.4177 10.1272 17.6275 9.93911 17.8432C9.89811 17.8901 9.85813 17.938 9.81782 17.9855C9.62899 18.2085 9.44499 18.4355 9.27064 18.6705C9.25617 18.6902 9.24238 18.7105 9.22791 18.7305C9.06148 18.9569 8.90333 19.1891 8.75068 19.4251C8.7207 19.4713 8.69004 19.5168 8.66075 19.5633C8.53739 19.759 8.42265 19.9603 8.30859 20.1618H14.2208L19.6802 18.8132Z" fill="#B6B7B4"/>
<path fill-rule="evenodd" clip-rule="evenodd" d="M24.6705 18.3669C24.6826 18.2118 24.6922 18.0571 24.7005 17.902C24.7112 17.6925 24.7184 17.4827 24.7225 17.2725C24.7256 17.1099 24.7253 16.9465 24.7246 16.7836C24.7242 16.7367 24.7256 16.6895 24.7249 16.6426C24.7208 16.2222 24.7043 15.8019 24.6784 15.3808C24.6774 15.3801 24.6764 15.3794 24.675 15.3787C24.6746 15.3777 24.6739 15.3767 24.6736 15.3756C24.6719 15.3746 24.6657 15.3712 24.6602 15.3681C24.6553 15.365 24.6509 15.3625 24.6415 15.3574C24.5644 15.3129 24.3745 15.2044 24.2043 15.1076C24.2005 15.1055 24.1967 15.1034 24.1933 15.1014C24.1502 15.0769 24.1085 15.0535 24.0709 15.0321C24.0702 15.0317 24.0692 15.0311 24.0689 15.0307C24.0361 15.0125 24.0089 14.9973 23.9838 14.9835C23.9789 14.9804 23.972 14.9766 23.9672 14.9739C23.9397 14.9587 23.9179 14.947 23.9055 14.9404C23.6337 14.7995 23.3566 14.6689 23.0744 14.5497C22.4022 14.2661 21.4963 14.0173 20.9863 13.8967V14.3667C20.9863 14.6014 20.9863 14.8364 20.9863 14.8364L22.2726 18.8117L22.274 18.8152C22.4067 18.9416 22.5211 19.087 22.6127 19.2472V19.2476C22.6427 19.3 22.6703 19.3544 22.6951 19.4099C22.6958 19.4109 22.6961 19.412 22.6968 19.4133C22.7212 19.4685 22.7433 19.5253 22.7626 19.5832C22.7629 19.5846 22.7636 19.586 22.764 19.587C22.7833 19.6449 22.7995 19.7041 22.8129 19.7644C22.8132 19.7658 22.8139 19.7675 22.8143 19.7689C22.8277 19.8299 22.8381 19.8916 22.8456 19.9547C22.8456 19.9553 22.846 19.9564 22.846 19.9574C22.8536 20.0212 22.8577 20.0859 22.8587 20.1514L22.8636 20.1621H24.4386C24.5451 19.5856 24.6192 19.0016 24.666 18.4151C24.6674 18.3989 24.6691 18.3827 24.6705 18.3669Z" fill="#E0DAD3"/>
<path fill-rule="evenodd" clip-rule="evenodd" d="M26.7349 16.9609C26.7325 16.9657 26.7309 16.9698 26.7285 16.9738C26.7309 16.9698 26.7333 16.9657 26.7349 16.9617" fill="#F1A948"/>
<path fill-rule="evenodd" clip-rule="evenodd" d="M22.8723 25.8267C23.2296 25.4711 23.5669 25.1306 23.8887 24.7967C24.08 24.5986 24.2671 24.4022 24.4452 24.2086C25.7618 22.7796 26.7284 21.4423 27.3097 19.7222C27.3234 19.6816 27.3369 19.6275 27.3503 19.5672C27.3524 19.5579 27.3545 19.5489 27.3565 19.5393C27.37 19.4752 27.3834 19.4035 27.3965 19.3232C27.402 19.2677 27.4072 19.214 27.4123 19.1619C27.2662 18.4129 26.9823 17.6848 26.7322 16.966C26.7332 16.9684 26.7342 16.9708 26.7349 16.9732C26.7335 16.9722 26.7287 16.9674 26.7277 16.9663C26.6798 16.9209 26.6295 16.8785 26.5809 16.8337C26.4327 16.6972 26.2821 16.5639 26.1288 16.4347C25.6688 16.0467 25.1857 15.6931 24.6785 15.3806C24.7044 15.8017 24.7209 16.2221 24.725 16.6424C24.7257 16.6893 24.7243 16.7365 24.7247 16.7834C24.7254 16.9464 24.7257 17.1097 24.7226 17.2723C24.7185 17.4825 24.7112 17.6923 24.7006 17.9018C24.6923 18.0569 24.6826 18.2116 24.6706 18.3667C24.6692 18.3825 24.6675 18.3987 24.6661 18.4149C24.6192 19.0014 24.5452 19.5854 24.4387 20.1619L24.2537 21.0368C23.8674 22.6032 23.0825 24.0242 22.4371 25.4914C22.2658 25.8808 22.1039 26.2739 21.9612 26.6747C21.9485 26.7115 21.9347 26.7498 21.9209 26.788C22.1225 26.5761 22.301 26.3928 22.4367 26.2588C22.5845 26.1123 22.73 25.9683 22.8723 25.8267Z" fill="#F1A948"/>
<path fill-rule="evenodd" clip-rule="evenodd" d="M19.6885 18.805C19.7729 18.7261 19.8639 18.6547 19.9614 18.592C19.9617 18.592 19.9621 18.5917 19.9624 18.5917C20.0589 18.5297 20.1616 18.4762 20.2691 18.4325C20.2718 18.4311 20.2749 18.4304 20.2777 18.4294C20.3835 18.3867 20.4941 18.3532 20.6085 18.3305C20.6126 18.3298 20.6168 18.3295 20.6209 18.3288C20.7356 18.3064 20.8542 18.294 20.9758 18.294C21.0995 18.294 21.2204 18.3067 21.3373 18.3295C21.3404 18.3301 21.3431 18.3301 21.3462 18.3308C21.4627 18.3543 21.5754 18.3887 21.6832 18.4325C21.6849 18.4332 21.687 18.4339 21.6887 18.4345C21.9075 18.5245 22.1056 18.6544 22.2741 18.815L22.2728 18.8115L20.9865 14.8362L19.6885 18.805Z" fill="#8A8D88"/>
<path fill-rule="evenodd" clip-rule="evenodd" d="M19.2321 20.8896C19.1876 20.7811 19.1528 20.6677 19.1291 20.5499C19.1287 20.5475 19.1284 20.5451 19.128 20.5426C19.105 20.4248 19.0922 20.3032 19.0922 20.1784C19.0922 20.1119 19.0956 20.0465 19.1025 19.982C19.1039 19.9669 19.1074 19.952 19.1091 19.9372C19.1156 19.8876 19.1225 19.8383 19.1325 19.7904C19.1356 19.7763 19.1401 19.7629 19.1432 19.7491C19.1546 19.7002 19.1666 19.6516 19.1818 19.6044C19.1849 19.5944 19.189 19.5851 19.1925 19.5751C19.2097 19.5244 19.228 19.4745 19.2497 19.4255C19.2521 19.42 19.2552 19.4145 19.2576 19.409C19.281 19.3566 19.3065 19.3053 19.3348 19.2553C19.3358 19.2536 19.3372 19.2515 19.3379 19.2498C19.4302 19.0879 19.5457 18.9407 19.68 18.8132L14.2206 20.1619H14.21L19.6177 21.4819C19.4557 21.3128 19.3244 21.1139 19.2338 20.8941C19.2331 20.8927 19.2328 20.8913 19.2321 20.8896Z" fill="#5F6360"/>
<path fill-rule="evenodd" clip-rule="evenodd" d="M31.5164 19.867C31.5199 19.8425 31.525 19.8198 31.5292 19.796C31.5429 19.7185 31.5591 19.6427 31.5802 19.571C31.5826 19.5627 31.5833 19.5534 31.5857 19.5455L32.2982 16.2838V14.4238C31.7163 13.9431 31.0929 13.6802 30.4438 13.6802C29.624 13.6802 28.8594 14.1329 28.2874 14.6922C27.662 15.3041 27.1786 16.0743 26.7875 16.8513C26.7696 16.8871 26.7513 16.9216 26.7334 16.9574C26.854 17.0618 26.9732 17.1676 27.0907 17.2751C27.3571 17.5187 27.6176 17.7689 27.8743 18.0221C27.9942 18.1403 28.1117 18.2613 28.2295 18.3812C28.3543 18.5083 28.4797 18.6355 28.6027 18.7647C28.7609 18.9311 28.918 19.0993 29.0734 19.2688C29.1385 19.3401 29.204 19.4114 29.2688 19.4835C29.4559 19.6905 29.6423 19.899 29.8256 20.1099L29.8259 20.1102C29.8566 20.1426 29.8783 20.1657 29.8866 20.175H31.4933C31.4933 20.1619 31.4957 20.1502 31.4961 20.1371C31.4978 20.0444 31.504 19.9538 31.5164 19.867Z" fill="#E0DAD3"/>
<path fill-rule="evenodd" clip-rule="evenodd" d="M26.7389 16.9724C26.7381 16.9684 26.7365 16.9644 26.7349 16.9612C26.7333 16.9652 26.7309 16.9692 26.7285 16.9732C26.7309 16.9756 26.7421 16.9868 26.7454 16.9892C26.7437 16.9836 26.7413 16.978 26.7389 16.9724Z" fill="#E0DAD3"/>
<path fill-rule="evenodd" clip-rule="evenodd" d="M7.33947 22.2144C7.34395 22.2024 7.34911 22.1907 7.35359 22.1786C7.45731 21.9081 7.57067 21.6411 7.68955 21.3768C7.72263 21.3031 7.75709 21.2303 7.7912 21.157C7.88871 20.9495 7.99174 20.7448 8.0989 20.5422C8.14232 20.4595 8.1847 20.3768 8.22984 20.2952C8.25465 20.25 8.28256 20.2066 8.30806 20.1618C8.42211 19.9603 8.53685 19.759 8.66021 19.5633C8.6895 19.5168 8.72017 19.4713 8.75014 19.4251C8.90279 19.1891 9.06095 18.9569 9.22738 18.7305C9.24185 18.7105 9.25563 18.6902 9.2701 18.6705C9.44446 18.4355 9.62846 18.2084 9.81728 17.9855C9.8576 17.938 9.89757 17.8901 9.93857 17.8432C10.1267 17.6275 10.321 17.4177 10.5226 17.215C10.5619 17.1751 10.6026 17.1365 10.6425 17.0972C10.8565 16.8877 11.0753 16.6827 11.3038 16.4887C11.3041 16.488 11.3048 16.4877 11.3051 16.4873C12.2034 13.4771 14.9528 11.286 18.2059 11.286C19.5156 11.286 20.8177 11.663 21.9338 12.3459C23.0785 13.0461 24.0112 14.0715 24.617 15.2675C24.6201 15.2734 24.6232 15.2796 24.6263 15.2854C24.6415 15.3158 24.6587 15.3447 24.6739 15.3754C24.6742 15.3764 24.6749 15.3774 24.6752 15.3785C24.6766 15.3792 24.6776 15.3799 24.6787 15.3805C25.1859 15.6931 25.6693 16.0466 26.129 16.4346C26.2823 16.5638 26.4329 16.6972 26.5811 16.8336C26.6296 16.8784 26.68 16.9208 26.7279 16.9663C26.7289 16.9645 26.7296 16.9628 26.7306 16.9608C26.7313 16.9597 26.732 16.9583 26.7323 16.9573C26.7489 16.9232 26.7654 16.8887 26.7819 16.8553C27.2406 13.9619 28.5169 11.8776 30.0223 11.8776C31.1566 11.8776 32.1621 13.0609 32.7847 14.8823L32.7913 14.9016C32.7916 14.9023 32.7923 14.903 32.793 14.9037C32.9687 15.0949 33.1403 15.3054 33.3064 15.5363H33.3061C33.3095 15.5408 33.3126 15.5446 33.3161 15.549C33.325 15.5756 33.3326 15.6028 33.3412 15.6293V15.629L33.3178 15.5342C31.445 9.99006 26.2013 5.99854 20.0252 5.99854C12.2782 5.99854 5.99805 12.2787 5.99805 20.0254C5.99805 21.5525 6.24235 23.0228 6.69546 24.3911C6.69581 24.3883 6.69649 24.3859 6.69718 24.3832C6.78643 23.9707 6.89325 23.5603 7.01729 23.1544C7.11412 22.8381 7.22197 22.5246 7.33947 22.2144Z" fill="#4B4D4A"/>
<path fill-rule="evenodd" clip-rule="evenodd" d="M33.5271 20.1806L33.0378 20.7277C33.0375 20.7291 33.0371 20.7302 33.0368 20.7315C33.0182 20.8032 32.9954 20.8707 32.9703 20.9355C32.9637 20.9524 32.9565 20.9686 32.9493 20.9851C32.9296 21.031 32.909 21.0744 32.8862 21.1157C32.8742 21.1381 32.8621 21.1605 32.8493 21.1812C32.829 21.2139 32.8073 21.2436 32.7849 21.2722C32.7529 21.3139 32.7191 21.3514 32.6836 21.3848C32.6691 21.3983 32.655 21.4134 32.6398 21.4255C32.6123 21.4476 32.584 21.4658 32.5547 21.4824C32.5437 21.4889 32.5327 21.4948 32.5213 21.5003C32.4514 21.5344 32.3776 21.5544 32.3011 21.5544C31.8566 21.5544 31.4962 20.9369 31.4962 20.175H29.8809C29.8812 20.1754 29.8815 20.1761 29.8819 20.1764C30.1817 20.5227 30.4766 20.8735 30.7671 21.2281C30.7709 21.2322 30.7743 21.2363 30.7778 21.2408C31.0603 21.5857 31.3391 21.9341 31.6144 22.2842C31.6278 22.3014 31.6416 22.3186 31.6551 22.3359C31.9162 22.6687 32.1743 23.004 32.4307 23.3403C32.4555 23.373 32.4807 23.4054 32.5051 23.4378C32.776 23.7941 33.0444 24.1514 33.3107 24.5091C33.3125 24.5115 33.3145 24.5139 33.3162 24.5167C33.778 23.1511 34.0361 21.6925 34.0519 20.175H33.5319L33.5271 20.1806Z" fill="#FFFFFE"/>
<path fill-rule="evenodd" clip-rule="evenodd" d="M17.8946 13.7023C17.9311 13.6995 17.9676 13.6974 18.0041 13.695C18.2547 13.6778 18.5062 13.6671 18.7605 13.6671C19.521 13.6671 20.2642 13.7488 20.9868 13.8966C20.9868 13.8966 20.9871 13.9007 20.9871 13.9073C20.9871 13.9135 20.9871 13.9231 20.9871 13.9342C20.9871 13.9473 20.9871 13.9645 20.9871 13.9834C20.9871 13.9983 20.9871 14.0151 20.9871 14.0331C20.9871 14.0575 20.9871 14.0854 20.9871 14.1147C20.9871 14.1333 20.9871 14.1537 20.9871 14.174C20.9871 14.1998 20.9871 14.2267 20.9871 14.2543V13.8966C21.4971 14.0172 22.403 14.266 23.0752 14.5496C23.3574 14.6688 23.6345 14.7994 23.9063 14.9403C23.9187 14.9469 23.9404 14.9586 23.968 14.9737C23.9728 14.9765 23.9797 14.9803 23.9845 14.9834C24.0097 14.9972 24.0373 15.0127 24.0696 15.0306C24.07 15.0309 24.071 15.0316 24.0717 15.032C24.1096 15.0533 24.1506 15.0768 24.194 15.1012C24.1975 15.1033 24.2013 15.1054 24.2051 15.1074C24.3777 15.2056 24.5693 15.3152 24.6423 15.3573C24.6516 15.3624 24.6561 15.3648 24.6609 15.3679C24.6647 15.37 24.673 15.3748 24.6744 15.3755C24.6592 15.3448 24.642 15.3159 24.6268 15.2856C24.6237 15.2797 24.6206 15.2735 24.6175 15.2677C24.0118 14.0717 23.079 13.0462 21.9343 12.346C20.8183 11.6631 19.5161 11.2861 18.2064 11.2861C14.9533 11.2861 12.204 13.4773 11.3057 16.4874C12.1564 15.7607 13.103 15.1481 14.1215 14.6833C15.3092 14.1409 16.5921 13.8012 17.8946 13.7023Z" fill="#1A1919"/>
<path fill-rule="evenodd" clip-rule="evenodd" d="M28.287 14.6924C28.859 14.1332 29.6236 13.6804 30.4433 13.6804C31.0925 13.6804 31.7158 13.9433 32.2978 14.424C32.2978 14.424 32.2978 14.4281 32.2978 14.4295V14.4305V14.4295C32.3498 14.4726 32.4008 14.5208 32.4525 14.5673C32.4835 14.5956 32.5152 14.6214 32.5462 14.651C32.6279 14.7293 32.7085 14.812 32.7885 14.8988C32.7902 14.9005 32.7916 14.9022 32.7933 14.904C32.7926 14.9036 32.7923 14.9029 32.7916 14.9022L32.785 14.8826C32.1624 13.0612 31.1569 11.8779 30.0226 11.8779C28.5171 11.8779 27.2409 13.9622 26.7822 16.8556L26.7871 16.8515C27.1781 16.0745 27.6616 15.3044 28.287 14.6924Z" fill="#1A1919"/>
<path fill-rule="evenodd" clip-rule="evenodd" d="M15.0028 33.1102C15.131 33.1591 15.2613 33.2036 15.3912 33.2491C16.8422 33.7576 18.4003 34.0374 20.0253 34.0374C21.8781 34.0374 23.645 33.675 25.2642 33.0223C25.3496 32.9879 25.4337 32.9503 25.5185 32.9141C25.656 32.8556 25.7924 32.7953 25.9275 32.7325C26.0484 32.6764 26.1694 32.6206 26.2886 32.5613C26.2597 32.5647 26.2311 32.5703 26.2021 32.5734C25.699 32.6302 25.1994 32.6333 24.7115 32.5634C21.8254 32.1485 21.1858 30.7568 21.2775 29.3075C21.0697 29.1879 20.8581 29.0529 20.6431 28.8968C18.4234 27.2866 17.1061 25.571 17.1061 25.571C17.1061 25.571 18.8183 26.8927 21.376 27.882C21.4308 27.9034 21.4822 27.9216 21.5359 27.942C21.6555 27.5288 21.7968 27.136 21.9212 26.788C21.9349 26.7497 21.9487 26.7115 21.9615 26.6746C22.1041 26.2739 22.2661 25.8807 22.4373 25.4914C23.0827 24.0242 23.8676 22.6032 24.2539 21.0367L24.4389 20.1619H22.8605C22.8605 20.1629 22.8605 20.1639 22.8605 20.165L22.8598 20.1653C22.8598 20.1698 22.8605 20.1739 22.8605 20.1784C22.8605 20.4386 22.8077 20.6863 22.7123 20.912C22.6647 21.0247 22.6065 21.1318 22.5386 21.2318C22.4032 21.4323 22.2302 21.6056 22.0297 21.741C21.9294 21.8086 21.8223 21.8668 21.7096 21.9147C21.4842 22.0102 21.2361 22.0629 20.976 22.0629C20.9098 22.0629 20.8447 22.0591 20.7803 22.0525C20.7651 22.0508 20.7506 22.0477 20.7358 22.0456C20.6865 22.0394 20.6376 22.0329 20.5897 22.0226C20.5763 22.0198 20.5635 22.0157 20.5501 22.0126C20.5012 22.0012 20.4522 21.9891 20.4047 21.974C20.3957 21.9712 20.3875 21.9674 20.3785 21.9643C20.3272 21.9471 20.2762 21.9285 20.2265 21.9068C20.2224 21.9051 20.2179 21.9026 20.2138 21.9006C20.1604 21.8768 20.108 21.8513 20.0574 21.8227C20.0567 21.8224 20.056 21.822 20.0549 21.8213C19.893 21.73 19.7455 21.6153 19.6173 21.4819L14.2096 20.1619H8.30814C8.28264 20.2067 8.25473 20.2501 8.22992 20.2952C8.18478 20.3769 8.1424 20.4599 8.09899 20.5423C7.99182 20.7449 7.8888 20.9496 7.79128 21.157C7.75682 21.23 7.72271 21.3034 7.68963 21.3768C7.57076 21.6411 7.45739 21.9082 7.35368 22.1786C7.3492 22.1907 7.34403 22.2024 7.33955 22.2145C7.22205 22.5246 7.1142 22.8382 7.01737 23.1545C6.89333 23.5604 6.78651 23.9708 6.69727 24.3832C7.62658 27.217 9.43386 29.6517 11.7969 31.368C11.8658 31.418 11.9382 31.4625 12.0082 31.511C12.4075 31.7905 12.8207 32.052 13.249 32.2891C13.8116 32.6006 14.3964 32.8773 15.0028 33.1102Z" fill="#FFFFFE"/>
<path fill-rule="evenodd" clip-rule="evenodd" d="M24.6878 28.7529C24.6664 28.9035 24.6516 29.051 24.6475 29.1937C24.6392 29.4531 24.6571 29.6995 24.6947 29.9324C24.7199 30.0878 24.7536 30.237 24.7943 30.38C24.8553 30.5943 24.9318 30.7942 25.0176 30.9792C25.103 31.1646 25.1974 31.3345 25.2946 31.4885C25.327 31.5398 25.3597 31.5895 25.3925 31.6374C25.4417 31.709 25.491 31.7766 25.5396 31.84C25.604 31.9244 25.6664 31.9985 25.7267 32.0681C25.9837 32.3641 26.1867 32.5246 26.1867 32.5246C26.1867 32.5246 26.1881 32.5295 26.1908 32.5377C26.1936 32.5463 26.1977 32.5584 26.2025 32.5732C26.2315 32.5701 26.2601 32.5646 26.289 32.5612C26.9144 32.4826 27.5443 32.3134 28.1663 32.0898C28.4833 31.9757 28.7989 31.852 29.1094 31.7104C29.2041 31.667 29.2968 31.6191 29.3909 31.5736C32.6037 30.0199 35.2944 27.272 35.2944 27.272C31.2574 29.2557 27.3117 29.1764 24.6878 28.7529Z" fill="#8B234A"/>
<path fill-rule="evenodd" clip-rule="evenodd" d="M32.4311 23.3401C32.1747 23.0038 31.9166 22.6686 31.6554 22.3357C31.642 22.3185 31.6282 22.3012 31.6148 22.284C31.3395 21.9339 31.0607 21.5856 30.7782 21.2407C30.7747 21.2362 30.7713 21.232 30.7675 21.2279C30.477 20.8733 30.182 20.5226 29.8823 20.1763C29.8633 20.1542 29.8444 20.1318 29.8251 20.1098C29.6418 19.8989 29.4553 19.6904 29.2682 19.4833C29.2031 19.4113 29.1383 19.3396 29.0729 19.2687C28.9175 19.0991 28.7603 18.931 28.6022 18.7646C28.4788 18.6357 28.3541 18.5082 28.229 18.381C28.1112 18.2611 27.9937 18.1402 27.8738 18.022C27.6167 17.7687 27.3566 17.5186 27.0902 17.275C26.9724 17.1675 26.8531 17.0613 26.7325 16.9573C26.7322 16.9583 26.7315 16.9597 26.7308 16.9607C26.9844 17.6891 27.2735 18.4269 27.4182 19.1863C27.4561 19.3841 27.4871 19.5764 27.5126 19.7642C27.8655 22.3932 27.0234 24.1102 25.685 26.3686C25.5892 26.5302 25.4907 26.6949 25.3901 26.8627C25.0841 27.373 24.888 27.8561 24.7747 28.3095C24.7368 28.4608 24.7082 28.6086 24.6875 28.753C27.3114 29.1765 31.2571 29.2557 35.2941 27.272C35.2941 27.272 34.5023 26.1084 33.3111 24.5089C33.0448 24.1513 32.7763 23.7939 32.5055 23.4376C32.481 23.4053 32.4559 23.3729 32.4311 23.3401Z" fill="#D01665"/>
<path fill-rule="evenodd" clip-rule="evenodd" d="M26.1866 32.5247C26.1866 32.5247 25.9837 32.3641 25.7266 32.0681C25.6663 31.9985 25.6039 31.9244 25.5395 31.84C25.4909 31.7766 25.4416 31.7091 25.3924 31.6374C25.3596 31.5895 25.3269 31.5399 25.2945 31.4885C25.1973 31.3345 25.1029 31.1646 25.0175 30.9793C24.9317 30.7942 24.8552 30.5944 24.7942 30.38C24.7535 30.2371 24.7198 30.0879 24.6946 29.9325C24.6571 29.6995 24.6391 29.4532 24.6474 29.1937C24.6515 29.051 24.6664 28.9036 24.6877 28.753C24.7084 28.6086 24.737 28.4608 24.7749 28.3095C24.8883 27.8561 25.0843 27.373 25.3903 26.8627C25.3913 26.8613 25.392 26.8599 25.3927 26.8585C25.4926 26.6921 25.5902 26.5288 25.6853 26.3685C27.0236 24.1102 27.8657 22.3932 27.5129 19.7641C27.4874 19.5763 27.4564 19.3841 27.4185 19.1863C27.3985 19.3231 27.3781 19.4406 27.3571 19.5391C27.3551 19.5488 27.353 19.5577 27.3509 19.567C27.3375 19.627 27.324 19.6814 27.3103 19.7221C26.729 21.4422 25.7624 22.7795 24.4458 24.2084C24.2677 24.4021 24.0806 24.5985 23.8893 24.7966C23.5675 25.1305 23.2302 25.4709 22.8729 25.8265C22.7306 25.9681 22.5851 26.1122 22.4373 26.2586C22.3016 26.3927 22.1231 26.576 21.9215 26.7879C21.7971 27.1359 21.6558 27.5287 21.5363 27.9419C21.4825 27.9215 21.4312 27.9033 21.3764 27.8819C18.8186 26.8926 17.1064 25.5709 17.1064 25.5709C17.1064 25.5709 18.4237 27.2865 20.6435 28.8967C20.8585 29.0528 21.0701 29.1878 21.2778 29.3074C21.1862 30.7567 21.8257 32.1484 24.7118 32.5633C25.1998 32.6332 25.6994 32.6301 26.2025 32.5733C26.1976 32.5584 26.1935 32.5464 26.1907 32.5378C26.188 32.5295 26.1866 32.5247 26.1866 32.5247Z" fill="#1A1919"/>
</svg>
